<svg width="861" height="609" viewBox="0 0 861 609" fill="none" xmlns="http://www.w3.org/2000/svg">
<g clip-path="url(#clip0_1314_12180)">
<path d="M50.8527 513.601L24.4756 491.279C27.4921 473.384 34.8313 456.495 45.8561 442.08C46.7425 474.329 79.7983 495.927 91.1734 526.117C94.649 535.56 95.9551 545.664 94.9949 555.68C94.0347 565.696 90.8328 575.368 85.6265 583.979L82.9729 608.343C68.5678 600.836 55.9613 590.296 46.0219 577.448C36.0826 564.6 29.0468 549.75 25.3992 533.921C23.4409 525.021 22.6111 515.909 22.9296 506.802C36.4349 510.912 50.8527 513.601 50.8527 513.601Z" fill="#F2F2F2"/>
<path d="M790.244 556.297L808.664 527.062C826.805 527.55 844.553 532.458 860.366 541.362C828.557 546.743 811.786 582.491 783.481 597.971C774.616 602.731 764.794 605.435 754.741 605.883C744.689 606.331 734.665 604.511 725.411 600.558L700.916 601.333C706.338 586.021 715.014 572.066 726.348 560.43C737.682 548.794 751.404 539.753 766.568 533.931C775.108 530.749 784.014 528.655 793.077 527.698C790.894 541.645 790.244 556.297 790.244 556.297Z" fill="#F2F2F2"/>
<path d="M207.198 460.992L105.065 455L119.065 356L209.065 453L207.198 460.992Z" fill="#F2F2F2"/>
<path d="M194.198 561.992L90.1982 554.992L104.065 465L194.667 555.008L194.198 561.992Z" fill="#F2F2F2"/>
<path d="M775.179 144.373V52.9267C775.179 45.9763 773.81 39.0939 771.151 32.6725C768.491 26.2512 764.592 20.4166 759.677 15.5019C754.763 10.5872 748.928 6.68862 742.507 4.02881C736.086 1.36899 729.203 0 722.253 0H528.511C521.56 -1.31322e-06 514.678 1.36899 508.257 4.02881C501.835 6.68863 496.001 10.5872 491.086 15.5019C486.171 20.4166 482.273 26.2512 479.613 32.6725C476.953 39.0939 475.584 45.9763 475.584 52.9267V554.609C475.584 568.646 481.16 582.109 491.086 592.034C501.012 601.96 514.474 607.536 528.511 607.536H722.253C736.29 607.536 749.752 601.96 759.677 592.034C769.603 582.109 775.179 568.646 775.179 554.609V209.466C776.065 209.466 776.914 209.115 777.54 208.489C778.166 207.863 778.517 207.014 778.517 206.128V147.711C778.517 146.826 778.166 145.977 777.54 145.351C776.914 144.725 776.065 144.373 775.179 144.373Z" fill="#3F3D56"/>
<path d="M763.915 53.2899V554.248C763.916 564.654 759.812 574.64 752.493 582.036C745.174 589.433 735.232 593.642 724.827 593.751C724.683 593.766 724.539 593.772 724.394 593.769H529.709C519.228 593.768 509.176 589.604 501.765 582.192C494.354 574.781 490.189 564.729 490.188 554.248V53.2899C490.189 42.8086 494.354 32.7569 501.765 25.3455C509.176 17.9341 519.228 13.77 529.709 13.7691H553.335C552.174 16.6213 551.731 19.7153 552.046 22.7787C552.362 25.8422 553.425 28.7813 555.142 31.3374C556.86 33.8935 559.18 35.9882 561.897 37.4373C564.615 38.8864 567.646 39.6455 570.726 39.6477H681.72C684.797 39.6392 687.824 38.8759 690.538 37.4246C693.251 35.9734 695.566 33.8785 697.281 31.3239C698.996 28.7692 700.058 25.8328 700.374 22.7721C700.69 19.7114 700.25 16.62 699.092 13.769H724.394C734.876 13.77 744.927 17.9341 752.339 25.3455C759.75 32.7569 763.914 42.8086 763.915 53.2899Z" fill="white"/>
<path d="M721.053 581.54C721.053 586.73 720.889 591.877 720.563 596.98C720.42 596.997 720.276 597.004 720.133 597H525.453C516.644 597 508.089 594.057 501.143 588.641C494.197 583.224 489.259 575.643 487.113 567.1C486.736 565.609 486.452 564.096 486.263 562.57C486.041 560.882 485.931 559.182 485.933 557.48V334.23C500.912 334.971 515.794 337.073 530.393 340.51C531.823 340.84 533.243 341.19 534.653 341.55C534.743 341.57 534.833 341.6 534.923 341.62C536.353 341.98 537.773 342.36 539.183 342.75C569.279 351.016 597.53 364.926 622.433 383.74C623.863 384.81 625.283 385.91 626.693 387.02L626.963 387.23C629.323 389.09 631.646 390.997 633.933 392.95C634.443 393.38 634.953 393.82 635.453 394.27C636.683 395.33 637.913 396.41 639.113 397.5C665.668 421.403 686.749 450.759 700.913 483.56C701.383 484.63 701.833 485.71 702.283 486.79C702.463 487.23 702.643 487.67 702.823 488.11C702.993 488.51 703.153 488.91 703.313 489.31C715.069 518.636 721.091 549.945 721.053 581.54Z" fill="#3F3D56"/>
<path d="M476.655 195.532C475.46 195.53 474.315 195.055 473.471 194.211C472.626 193.366 472.151 192.221 472.149 191.026V160.39C472.149 159.195 472.624 158.049 473.469 157.204C474.314 156.359 475.46 155.885 476.655 155.885C477.85 155.885 478.996 156.359 479.841 157.204C480.685 158.049 481.16 159.195 481.16 160.39V191.026C481.159 192.221 480.684 193.366 479.839 194.211C478.994 195.055 477.849 195.53 476.655 195.532Z" fill="#3F3D56"/>
<path d="M475.753 136.062C474.559 136.06 473.414 135.585 472.569 134.74C471.725 133.896 471.249 132.751 471.248 131.556V100.92C471.248 99.725 471.723 98.5791 472.568 97.7341C473.413 96.8892 474.559 96.4146 475.753 96.4146C476.948 96.4146 478.094 96.8892 478.939 97.7341C479.784 98.5791 480.259 99.725 480.259 100.92V131.556C480.257 132.751 479.782 133.896 478.938 134.74C478.093 135.585 476.948 136.06 475.753 136.062Z" fill="#3F3D56"/>
<path d="M595.596 18.9223C595.597 17.7279 596.072 16.5827 596.917 15.7381C597.761 14.8935 598.907 14.4184 600.101 14.417H630.737C631.33 14.4161 631.916 14.532 632.464 14.758C633.011 14.984 633.508 15.3158 633.927 15.7342C634.347 16.1527 634.679 16.6496 634.906 17.1967C635.133 17.7437 635.249 18.3301 635.249 18.9224C635.249 19.5146 635.133 20.101 634.906 20.648C634.679 21.1951 634.347 21.692 633.927 22.1105C633.508 22.5289 633.011 22.8607 632.464 23.0867C631.916 23.3127 631.33 23.4286 630.737 23.4277H600.101C598.907 23.4263 597.761 22.9512 596.917 22.1066C596.072 21.2619 595.597 20.1168 595.596 18.9223Z" fill="white"/>
<path d="M476.655 247.794C475.46 247.793 474.315 247.317 473.471 246.473C472.626 245.628 472.151 244.483 472.149 243.289V212.652C472.149 211.457 472.624 210.311 473.469 209.467C474.314 208.622 475.46 208.147 476.655 208.147C477.85 208.147 478.996 208.622 479.841 209.467C480.685 210.311 481.16 211.457 481.16 212.652V243.289C481.159 244.483 480.684 245.628 479.839 246.473C478.994 247.317 477.849 247.793 476.655 247.794Z" fill="#3F3D56"/>
<path d="M647.858 23.4277C650.346 23.4277 652.363 21.4106 652.363 18.9223C652.363 16.4341 650.346 14.417 647.858 14.417C645.37 14.417 643.353 16.4341 643.353 18.9223C643.353 21.4106 645.37 23.4277 647.858 23.4277Z" fill="white"/>
<path opacity="0.2" d="M631.222 559.34C631.221 549.985 633.063 540.722 636.642 532.08C640.221 523.437 645.468 515.584 652.082 508.97C658.697 502.355 666.55 497.109 675.192 493.529C683.835 489.95 693.098 488.109 702.452 488.11H702.822C702.642 487.67 702.462 487.23 702.282 486.79C701.832 485.71 701.382 484.63 700.912 483.56H631.222V394.27H635.452C634.952 393.82 634.442 393.38 633.932 392.95C631.642 391 629.319 389.093 626.962 387.23L626.692 387.02V389.72H539.182V342.75C537.772 342.36 536.352 341.98 534.922 341.62C534.832 341.6 534.742 341.57 534.652 341.55V389.72H490.192V394.27H534.652V483.56H490.192V488.11H534.652V559.34H490.522C490.712 560.866 490.996 562.379 491.372 563.87H534.652V593.77H539.182V563.87H626.692V593.77H631.222V563.87H707.572V559.34H631.222ZM626.692 559.34H539.182V488.11H626.692V559.34ZM626.692 483.56H539.182V481.78C539.183 458.571 548.402 436.312 564.814 419.901C581.225 403.49 603.483 394.27 626.692 394.27V483.56Z" fill="black"/>
<path d="M238.653 232.79L190.083 606.41L189.773 608.79H187.753L188.063 606.41L236.673 232.53L238.653 232.79Z" fill="#E5E5E5"/>
<path d="M137.533 233.26L83.9733 606.45L83.6333 608.83H81.6133L81.9533 606.45L135.553 232.98L137.533 233.26Z" fill="#E5E5E5"/>
<path d="M314.173 608.74L312.093 608.75L311.453 606.37L207.843 221.52L209.773 221L313.523 606.37L314.173 608.74Z" fill="#3F3D56"/>
<path d="M309.785 220.985L307.861 221.531L417.047 606.682L418.971 606.137L309.785 220.985Z" fill="#3F3D56"/>
<path d="M398.129 536.019L299.122 556.501L299.527 558.46L398.534 537.978L398.129 536.019Z" fill="#3F3D56"/>
<path d="M380.964 475.939L281.957 496.422L282.362 498.381L381.369 477.898L380.964 475.939Z" fill="#3F3D56"/>
<path d="M363.81 415.857L265.494 434.885L265.874 436.848L364.19 417.82L363.81 415.857Z" fill="#3F3D56"/>
<path d="M346.643 355.789L250.469 374.794L250.856 376.756L347.031 357.751L346.643 355.789Z" fill="#3F3D56"/>
<path d="M135.842 233.191C134.338 223.366 136.798 213.346 142.682 205.335C148.566 197.324 157.391 191.979 167.216 190.475C177.041 188.971 187.061 191.432 195.072 197.316C203.082 203.199 208.428 212.024 209.932 221.849L207.955 222.152C207.252 217.545 205.649 213.122 203.236 209.134C200.823 205.147 197.648 201.675 193.893 198.915C190.137 196.155 185.875 194.162 181.349 193.05C176.823 191.938 172.123 191.729 167.516 192.434C162.909 193.139 158.487 194.745 154.501 197.16C150.515 199.575 147.044 202.751 144.286 206.508C141.528 210.265 139.537 214.528 138.428 219.055C137.318 223.581 137.111 228.282 137.818 232.888L135.842 233.191Z" fill="#3F3D56"/>
<path d="M236.003 233.638C235.193 228.783 235.347 223.815 236.457 219.02C237.567 214.224 239.611 209.694 242.472 205.688C245.334 201.683 248.956 198.28 253.132 195.674C257.309 193.069 261.957 191.312 266.813 190.503C271.669 189.695 276.636 189.851 281.431 190.962C286.227 192.074 290.756 194.119 294.761 196.981C298.766 199.844 302.167 203.467 304.771 207.644C307.376 211.822 309.131 216.471 309.938 221.327L307.966 221.655C306.416 212.377 301.245 204.095 293.591 198.629C285.936 193.163 276.424 190.96 267.146 192.505C257.868 194.05 249.583 199.217 244.113 206.868C238.643 214.52 236.435 224.031 237.976 233.31L236.003 233.638Z" fill="#3F3D56"/>
<path d="M339.339 315.25L320.12 362.005L382.739 361.551L376.371 315.146L339.339 315.25Z" fill="#FFB6B6"/>
<path d="M354.63 529.884L363.918 531.239L373.562 496.059L359.854 494.06L354.63 529.884Z" fill="#FFB6B6"/>
<path d="M352.995 524.967L367.805 526.232L366.887 532.523L379.44 544.2C380.06 544.776 380.479 545.536 380.637 546.368C380.794 547.2 380.682 548.06 380.316 548.824C379.95 549.587 379.35 550.214 378.602 550.612C377.855 551.01 377 551.159 376.162 551.037L358.682 548.487L356.577 541.825L354.493 547.875L347.902 546.914L352.995 524.967Z" fill="#2F2E41"/>
<path d="M247.292 503.901L254.702 509.663L280.452 483.824L269.516 475.321L247.292 503.901Z" fill="#FFB6B6"/>
<path d="M248.297 498.817L260.554 507.227L256.651 512.245L261.806 528.595C262.061 529.403 262.051 530.271 261.777 531.072C261.504 531.874 260.982 532.567 260.286 533.05C259.591 533.533 258.76 533.782 257.913 533.759C257.067 533.737 256.25 533.444 255.582 532.924L241.637 522.081L243.093 515.247L238.295 519.482L233.037 515.393L248.297 498.817Z" fill="#2F2E41"/>
<path d="M323.656 350.911L317.489 359.08L301.074 430.499L263.763 480.891L276.305 492.934L323.895 446.766L347.249 397.436L359.065 443L356.065 504L376.065 503C381.486 432.209 389.965 359.371 379.978 338.916C373.395 344.658 365.709 348.997 357.392 351.668C349.074 354.338 340.299 355.284 331.603 354.447L323.656 350.911Z" fill="#2F2E41"/>
<path d="M356.668 239.64L372.446 256.894C375.909 260.68 378.104 265.453 378.725 270.547C379.007 272.859 378.96 275.201 378.585 277.5L375.184 302.42L381.184 340.42C381.184 340.42 372.632 345.636 356.184 356.42C349.47 360.821 318.145 360.75 318.184 359.42C318.361 353.258 323.873 336.651 325.184 316.42C326.801 291.449 324.68 261.645 330.184 247.42C336.902 230.054 356.668 239.64 356.668 239.64Z" fill="#1D84F4"/>
<path d="M302.522 350.202C303.21 349.2 303.671 348.06 303.871 346.861C304.071 345.663 304.006 344.435 303.68 343.264C303.354 342.093 302.776 341.008 301.985 340.085C301.195 339.162 300.211 338.423 299.104 337.921L299.721 318.935L288.275 315.747L287.781 342.571C287.061 344.486 287.068 346.599 287.802 348.509C288.536 350.419 289.945 351.993 291.762 352.934C293.579 353.874 295.678 354.116 297.661 353.612C299.644 353.108 301.373 351.895 302.522 350.202Z" fill="#FFB6B6"/>
<path d="M287.253 273.559C287.591 272.674 288.109 271.869 288.774 271.195C289.439 270.521 290.237 269.992 291.117 269.642C297.209 267.083 323.547 245.56 324.518 245.964L332.879 241.837C333.188 241.841 341.424 242.036 345.465 246.618C346.305 247.585 346.926 248.723 347.285 249.953C347.643 251.183 347.732 252.476 347.543 253.743C346.36 264.655 309.022 289.165 305.065 289L300.873 319.982L302.504 331.818L287.235 332.252L282.529 314.824C281.854 313.553 281.001 289.48 287.253 273.559Z" fill="#1D84F4"/>
<path d="M348.47 257.01C349.706 248.539 344.948 240.832 337.844 239.795C330.739 238.759 323.978 244.786 322.742 253.257C321.507 261.727 326.264 269.434 333.369 270.471C340.473 271.507 347.234 265.48 348.47 257.01Z" fill="#1D84F4"/>
<path d="M233.692 312.393L233.305 310.431L326.183 289.42V291.42L233.692 312.393Z" fill="#3F3D56"/>
<path d="M644.863 171.07H609.241C601.557 171.07 595.328 177.299 595.328 184.983V184.983C595.328 192.667 601.557 198.896 609.241 198.896H644.863C652.547 198.896 658.776 192.667 658.776 184.983C658.776 177.299 652.547 171.07 644.863 171.07Z" fill="#E6E6E6"/>
<path d="M710.949 226.722H543.154C535.47 226.722 529.241 232.951 529.241 240.635V240.635C529.241 248.319 535.47 254.548 543.154 254.548H710.949C718.633 254.548 724.862 248.319 724.862 240.635C724.862 232.951 718.633 226.722 710.949 226.722Z" fill="#E6E6E6"/>
<path d="M638.949 268.374H471.154C463.47 268.374 457.241 274.603 457.241 282.287V282.287C457.241 289.971 463.47 296.2 471.154 296.2H638.949C646.633 296.2 652.862 289.971 652.862 282.287C652.862 274.603 646.633 268.374 638.949 268.374Z" fill="#1D84F4"/>
<path d="M860.13 607.34C860.13 607.496 860.1 607.651 860.04 607.796C859.981 607.94 859.893 608.072 859.782 608.182C859.672 608.293 859.54 608.381 859.396 608.44C859.251 608.5 859.096 608.53 858.94 608.53L266.25 608.74L264.17 608.75L141.85 608.79H139.83L35.71 608.83H33.69L1.19 608.84C0.874395 608.84 0.57171 608.715 0.348541 608.491C0.125373 608.268 0 607.966 0 607.65C0 607.334 0.125373 607.032 0.348541 606.808C0.57171 606.585 0.874395 606.46 1.19 606.46L34.03 606.45H36.05L140.14 606.41H142.16L263.53 606.37H265.6L369.02 606.33H370.38L858.94 606.15C859.096 606.149 859.251 606.18 859.396 606.24C859.541 606.299 859.672 606.387 859.782 606.497C859.893 606.608 859.981 606.739 860.04 606.884C860.1 607.029 860.13 607.184 860.13 607.34Z" fill="#CACACA"/>
<path d="M373.363 222.411C370.378 226.376 366.131 229.207 361.322 230.437C356.513 231.666 351.429 231.221 346.907 229.175C342.384 227.129 338.694 223.604 336.443 219.181C334.191 214.757 333.514 209.698 334.521 204.838C335.529 199.978 338.162 195.606 341.986 192.442C345.811 189.278 350.599 187.51 355.562 187.431C360.524 187.352 365.366 188.965 369.29 192.005C373.214 195.045 375.985 199.331 377.148 204.156C377.211 204.418 377.264 204.678 377.315 204.948C377.929 207.973 377.894 211.094 377.213 214.104C376.532 217.114 375.22 219.945 373.363 222.411Z" fill="#FFB6B6"/>
<path d="M379.047 205.202C378.497 202.463 378.705 203.878 378.143 201.149C378.259 202.47 377.971 203.795 377.316 204.949L351.578 201.194L353.761 186.233C361.737 184.344 369.48 182.877 373.126 189.058C377.094 189.637 380.669 191.768 383.066 194.983C385.462 198.198 386.483 202.234 385.905 206.202L379.047 205.202Z" fill="#2F2E41"/>
<path d="M363.856 245.46C363.877 245.18 363.889 244.889 363.89 244.606C363.84 242.523 363.57 240.451 363.084 238.425C362.646 236.229 362.2 234.021 361.753 231.824C362.168 235.755 361.289 239.714 359.248 243.1C355.398 239.082 357.944 233.266 352.264 232.438C338.608 230.446 327.497 215.801 329.49 202.136C331.482 188.48 338.83 179.123 352.485 181.115C366.151 183.108 376.321 190.979 374.596 204.673C357.197 206.177 367.235 244.538 363.856 245.46Z" fill="#2F2E41"/>
<path d="M333.812 193.58C338.85 193.58 342.933 189.496 342.933 184.459C342.933 179.422 338.85 175.338 333.812 175.338C328.775 175.338 324.691 179.422 324.691 184.459C324.691 189.496 328.775 193.58 333.812 193.58Z" fill="#2F2E41"/>
<path d="M344.63 176.928C343.78 175.088 342.488 173.485 340.871 172.263C339.253 171.041 337.358 170.236 335.355 169.921C336.766 170.559 337.999 171.534 338.944 172.761C339.889 173.987 340.518 175.428 340.776 176.954C341.033 178.481 340.911 180.048 340.42 181.517C339.93 182.986 339.085 184.311 337.961 185.377L339.806 183.792C340.308 184.22 340.935 184.476 341.593 184.523C342.252 184.57 342.909 184.405 343.467 184.053C344.015 183.684 344.471 183.196 344.803 182.626C345.135 182.055 345.333 181.417 345.383 180.759C345.471 179.438 345.211 178.117 344.63 176.928Z" fill="#2F2E41"/>
<path d="M460.736 273.397C459.651 272.848 458.46 272.544 457.245 272.505C456.031 272.466 454.822 272.694 453.705 273.172C452.588 273.651 451.59 274.369 450.78 275.275C449.971 276.181 449.37 277.254 449.019 278.418L430.12 280.333L428.482 292.101L455.134 289.023C457.128 289.481 459.221 289.193 461.016 288.211C462.811 287.23 464.184 285.624 464.875 283.698C465.565 281.772 465.525 279.66 464.763 277.761C464 275.863 462.567 274.31 460.736 273.397Z" fill="#FFB6B6"/>
<path d="M386.805 298.726C385.883 298.509 385.017 298.103 384.26 297.534C383.503 296.964 382.873 296.244 382.409 295.418C379.062 289.721 354.227 266.48 354.498 265.465L349.295 257.726C349.258 257.42 348.355 249.231 352.359 244.616C353.206 243.655 354.251 242.888 355.422 242.369C356.593 241.85 357.863 241.591 359.144 241.609C370.116 241.329 397.702 276.056 398.065 280L431.003 279.051L442.517 275.86L444.979 290.936L428.332 297.918C427.162 298.757 403.416 302.805 386.805 298.726Z" fill="#1D84F4"/>
</g>
<defs>
<clipPath id="clip0_1314_12180">
<rect width="860.367" height="608.84" fill="white"/>
</clipPath>
</defs>
</svg>
