<svg width="582" height="522" viewBox="0 0 582 522" fill="none" xmlns="http://www.w3.org/2000/svg">
<g clip-path="url(#clip0_1314_12269)">
<path d="M451.377 519.527H436.617C434.894 519.525 433.242 518.839 432.023 517.621C430.805 516.402 430.119 514.75 430.117 513.027V390.012C430.119 388.289 430.805 386.637 432.023 385.418C433.242 384.2 434.894 383.514 436.617 383.512H451.377C453.1 383.514 454.752 384.2 455.971 385.418C457.19 386.637 457.875 388.289 457.877 390.012V513.027C457.875 514.75 457.19 516.402 455.971 517.621C454.752 518.839 453.1 519.525 451.377 519.527Z" fill="#1D84F4"/>
<path d="M472.628 354.305L461.082 345.111C460.465 344.62 459.758 344.256 459.001 344.038C458.243 343.821 457.451 343.755 456.668 343.843C455.885 343.932 455.127 344.174 454.438 344.556C453.749 344.938 453.141 345.451 452.65 346.068L376.026 442.303C375.535 442.919 375.171 443.626 374.953 444.384C374.735 445.141 374.669 445.934 374.758 446.717C374.847 447.5 375.089 448.257 375.471 448.947C375.852 449.636 376.366 450.243 376.982 450.734L377.296 450.984L414.57 510.127C414.99 510.794 415.537 511.371 416.181 511.826C416.824 512.281 417.55 512.605 418.319 512.78C419.087 512.954 419.882 512.975 420.659 512.842C421.436 512.709 422.179 512.424 422.845 512.004L435.332 504.135C436.678 503.286 437.632 501.938 437.984 500.386C438.336 498.834 438.057 497.206 437.209 495.86L406.449 447.053L473.585 362.736C474.075 362.12 474.44 361.413 474.658 360.655C474.875 359.898 474.941 359.105 474.853 358.322C474.764 357.54 474.522 356.782 474.14 356.092C473.758 355.403 473.244 354.796 472.628 354.305Z" fill="#1D84F4"/>
<path d="M461.196 427.612H390.196C387.943 427.609 385.782 426.713 384.189 425.119C382.595 423.526 381.699 421.365 381.696 419.112V402.112C381.699 399.858 382.595 397.698 384.189 396.104C385.782 394.511 387.943 393.614 390.196 393.612H461.196C463.45 393.614 465.61 394.511 467.204 396.104C468.797 397.698 469.694 399.858 469.696 402.112V419.112C469.694 421.365 468.797 423.526 467.204 425.119C465.61 426.713 463.45 427.609 461.196 427.612Z" fill="#CCCCCC"/>
<path d="M581.852 518.867H257.819V521.108H581.852V518.867Z" fill="#3F3D56"/>
<path d="M436.185 239.7C465.743 239.7 489.704 215.739 489.704 186.181C489.704 156.623 465.743 132.662 436.185 132.662C406.627 132.662 382.666 156.623 382.666 186.181C382.666 215.739 406.627 239.7 436.185 239.7Z" fill="#1D84F4"/>
<path d="M491.324 403.974H381.262C379.538 403.972 377.886 403.287 376.668 402.068C375.449 400.85 374.764 399.197 374.762 397.474L396.771 284.868C396.799 275.215 400.651 265.968 407.484 259.15C414.317 252.333 423.574 248.503 433.227 248.499H440.369C450.034 248.509 459.3 252.354 466.135 259.188C472.969 266.022 476.813 275.288 476.824 284.954L497.815 397.382C497.826 398.242 497.665 399.096 497.344 399.894C497.023 400.691 496.547 401.418 495.943 402.03C495.34 402.643 494.621 403.131 493.828 403.464C493.035 403.798 492.184 403.971 491.324 403.974Z" fill="#2F2E41"/>
<path d="M394.469 204.05C391.162 203.958 387.046 203.842 383.88 201.527C382.936 200.809 382.16 199.894 381.608 198.845C381.055 197.796 380.738 196.639 380.68 195.455C380.622 194.613 380.76 193.77 381.083 192.99C381.406 192.211 381.904 191.517 382.54 190.962C384.196 189.563 386.613 189.235 389.218 190L386.519 170.274L388.501 170.003L391.673 193.194L390.019 192.434C388.1 191.554 385.467 191.106 383.831 192.489C383.429 192.851 383.116 193.3 382.916 193.802C382.717 194.304 382.635 194.846 382.679 195.384C382.727 196.266 382.965 197.126 383.376 197.908C383.787 198.689 384.361 199.373 385.06 199.912C387.523 201.714 390.805 201.946 394.525 202.051L394.469 204.05Z" fill="#2F2E41"/>
<path d="M410.72 171.976H399.948V173.976H410.72V171.976Z" fill="#2F2E41"/>
<path d="M335.089 358.387L344.538 369.726C346.659 372.271 350.443 372.615 352.988 370.494L447.492 291.744C450.038 289.623 450.382 285.84 448.261 283.294L438.812 271.955C436.691 269.409 432.907 269.065 430.362 271.187L335.858 349.936C333.312 352.058 332.968 355.841 335.089 358.387Z" fill="#1D84F4"/>
<path d="M452.991 289.396L414.011 326.438C412.796 327.593 411.182 328.236 409.505 328.233C407.828 328.23 406.216 327.581 405.004 326.422L387.37 309.545C386.673 308.878 386.133 308.065 385.788 307.165C385.443 306.264 385.302 305.299 385.375 304.337C385.448 303.376 385.733 302.442 386.21 301.604C386.686 300.766 387.343 300.044 388.132 299.49L434.36 267.031C435.69 265.926 437.404 265.394 439.126 265.55C440.849 265.706 442.439 266.537 443.549 267.863L453.827 280.197C454.934 281.529 455.468 283.245 455.312 284.97C455.155 286.694 454.32 288.286 452.991 289.396Z" fill="#2F2E41"/>
<path d="M439.037 131.974C436.783 121.673 439.565 110.787 445.594 102.253C451.737 93.5588 461.355 87.7453 471.555 85.0913C491.328 79.9466 512.321 87.1298 526.965 100.838C542.768 115.631 549.817 137.138 548.803 158.488C547.774 180.135 538.458 200.459 524.479 216.803C517.596 224.81 509.767 231.951 501.162 238.069C496.918 241.101 491.952 245.048 486.492 245.137C482.534 245.201 477.476 242.637 478.518 237.963C478.877 236.354 480.007 234.607 481.786 234.396C483.68 234.173 483.703 231.17 481.786 231.396C477.132 231.946 474.421 236.986 475.682 241.364C477.076 246.205 482.689 248.509 487.35 248.09C493.259 247.558 498.335 243.78 503.002 240.427C507.664 237.086 512.117 233.461 516.335 229.574C533.072 214.106 546.005 193.96 550.275 171.361C554.577 148.596 550.337 123.88 535.52 105.619C522.075 89.0491 500.457 78.3504 478.902 80.7199C467.575 81.965 456.522 86.5838 448.279 94.5614C444.236 98.4586 441.004 103.116 438.768 108.267C436.532 113.418 435.336 118.96 435.249 124.574C435.248 127.331 435.548 130.08 436.144 132.771C436.556 134.656 439.449 133.859 439.037 131.974Z" fill="#2F2E41"/>
<path d="M446.061 133.561C445.656 129.881 446.099 126.158 447.353 122.676C448.608 119.194 450.642 116.045 453.299 113.469C455.957 110.892 459.169 108.958 462.688 107.813C466.208 106.668 469.943 106.342 473.608 106.861C475.518 107.101 475.501 104.099 473.608 103.861C469.546 103.342 465.421 103.746 461.537 105.043C457.653 106.339 454.112 108.495 451.177 111.349C448.241 114.203 445.987 117.682 444.582 121.528C443.177 125.373 442.657 129.486 443.061 133.561C443.244 135.465 446.245 135.484 446.061 133.561Z" fill="#2F2E41"/>
<path d="M434.142 121.275C433.072 121.274 432.037 121.655 431.222 122.348C430.407 123.042 429.865 124.003 429.695 125.059C429.525 126.115 429.736 127.198 430.292 128.112C430.848 129.027 431.711 129.713 432.727 130.049L446.971 134.752C448.104 135.126 449.34 135.035 450.406 134.498C451.472 133.961 452.281 133.023 452.655 131.889C453.029 130.756 452.938 129.521 452.401 128.455C451.864 127.389 450.926 126.58 449.792 126.206L435.548 121.502C435.094 121.352 434.62 121.276 434.142 121.275Z" fill="#2F2E41"/>
<path d="M155.999 311.556H155.776C69.8816 311.556 0 241.675 0 155.778C0 69.8815 69.8816 0 155.778 0C241.674 0 311.556 69.8815 311.556 155.778C311.548 176.847 307.269 197.697 298.977 217.067C290.686 236.436 278.554 253.924 263.314 268.474L294.655 303.606L293.048 304.287C267.071 315.302 240.75 300.287 229.992 292.766C207.272 305.081 181.842 311.539 155.999 311.556ZM155.778 2.50157C71.2611 2.50157 2.50153 71.2612 2.50153 155.778C2.50153 240.294 71.2611 309.055 155.778 309.055C181.539 309.076 206.888 302.591 229.474 290.2L230.162 289.821L230.801 290.277C240.567 297.226 265.625 312.081 290.441 302.639L259.826 268.321L260.717 267.487C275.971 253.151 288.129 235.845 296.442 216.633C304.755 197.422 309.047 176.712 309.055 155.779C309.055 71.2612 240.295 2.50157 155.778 2.50157Z" fill="#3F3D56"/>
<path d="M204.022 130.289C172.053 129.957 140.089 129.385 108.122 128.951C97.4654 128.806 86.8082 128.679 76.1508 128.57C66.968 128.474 66.9445 114.195 76.1508 114.291C108.119 114.624 140.083 115.195 172.05 115.63C182.707 115.774 193.364 115.901 204.022 116.01C213.204 116.106 213.228 130.385 204.022 130.289Z" fill="#1D84F4"/>
<path d="M239.044 163.607L109.841 162.269L73.0951 161.888C63.9123 161.793 63.8889 147.513 73.0951 147.609L202.298 148.948L239.044 149.328C248.226 149.423 248.25 163.703 239.044 163.607Z" fill="#1D84F4"/>
<path d="M239.044 196.925L109.841 195.587L73.0951 195.206C63.9123 195.111 63.8889 180.831 73.0951 180.927L202.298 182.265L239.044 182.646C248.226 182.741 248.25 197.021 239.044 196.925Z" fill="#1D84F4"/>
<path d="M311 330.556C315.971 330.556 320 326.527 320 321.556C320 316.586 315.971 312.556 311 312.556C306.029 312.556 302 316.586 302 321.556C302 326.527 306.029 330.556 311 330.556Z" fill="#E6E6E6"/>
</g>
<defs>
<clipPath id="clip0_1314_12269">
<rect width="581.852" height="521.108" fill="white"/>
</clipPath>
</defs>
</svg>
