<svg width="923" height="660" viewBox="0 0 923 660" fill="none" xmlns="http://www.w3.org/2000/svg">
<path d="M638.55 602.371L655.75 620.94C655.75 620.94 671.663 621.121 668.55 612.34C667.927 610.437 667.485 608.481 667.227 606.495C666.443 600.262 666.069 593.984 666.107 587.702C666.107 583.585 666.171 580.695 666.171 580.695C666.171 580.695 641.117 569.72 643.677 581.154C643.995 582.584 644.167 584.042 644.189 585.506C644.199 589.744 643.22 593.925 641.331 597.718C640.559 599.357 639.627 600.915 638.55 602.371Z" fill="#FFB9B9"/>
<path d="M598.64 630.335C604.473 635.305 611.927 637.961 619.588 637.801C633.774 637.601 660.278 637.182 666.432 636.926C674.666 636.563 671.932 629.535 671.669 624.692V624.212C671.569 619.359 670.602 608.843 668.96 607.2C667.318 605.557 661.697 614.517 661.697 614.517C661.697 614.517 650.722 617.717 647.703 608.117C644.684 598.517 638.552 597.59 638.552 597.59C635.768 596.385 635.63 603.627 635.63 603.627L612.4 615.605L598.769 617.738C598.332 617.938 597.937 618.143 597.564 618.346C591.398 621.803 594.13 626.432 598.64 630.335Z" fill="#090814"/>
<path d="M573.895 602.371L591.095 620.94C591.095 620.94 607.008 621.121 603.895 612.34C603.272 610.437 602.829 608.481 602.572 606.495C601.788 600.262 601.413 593.984 601.452 587.702C601.452 583.585 601.516 580.695 601.516 580.695C601.516 580.695 576.462 569.72 579.022 581.154C579.34 582.584 579.512 584.042 579.534 585.506C579.544 589.744 578.565 593.925 576.676 597.718C575.903 599.357 574.972 600.915 573.895 602.371Z" fill="#FFB9B9"/>
<path d="M533.986 630.335C539.819 635.305 547.273 637.961 554.934 637.801C569.12 637.601 595.624 637.182 601.778 636.926C610.012 636.563 607.278 629.535 607.015 624.692V624.212C606.915 619.359 605.948 608.843 604.306 607.2C602.664 605.557 597.043 614.517 597.043 614.517C597.043 614.517 586.068 617.717 583.049 608.117C580.03 598.517 573.898 597.59 573.898 597.59C571.114 596.385 570.976 603.627 570.976 603.627L547.746 615.605L534.115 617.738C533.678 617.938 533.283 618.143 532.91 618.346C526.744 621.803 529.476 626.432 533.986 630.335Z" fill="#090814"/>
<path d="M262.195 55.4884C262.195 55.4884 262.696 84.204 252.648 86.7088C242.599 89.2136 267.119 115.181 280.258 111.847C293.398 108.513 298.465 87.4623 298.465 87.4623C298.465 87.4623 286.566 72.9197 291.087 65.0766C295.608 57.2335 262.195 55.4884 262.195 55.4884Z" fill="#A0616A"/>
<path d="M652.145 126.94C657.335 105.509 661.733 81.34 651.945 61.598C645.153 47.898 620.027 43.29 605.624 48.224C591.221 53.158 580.807 66.544 576.224 81.139C571.641 95.734 572.176 111.462 574.172 126.639C600.664 126.126 627.154 125.617 652.145 126.94Z" fill="#090814"/>
<path d="M91.1695 593.041C91.5679 607.911 94.059 622.651 98.5695 636.826C98.6695 637.155 98.7805 637.479 98.8885 637.808H126.501C126.472 637.513 126.442 637.184 126.413 636.826C124.572 615.66 135.09 488.373 147.782 466.343C146.671 468.13 89.0285 525.787 91.1695 593.041Z" fill="#E6E6E6"/>
<path d="M93.2411 636.826C93.4721 637.155 93.7121 637.484 93.9581 637.808H114.674C114.517 637.528 114.335 637.199 114.124 636.826C110.702 630.65 100.573 612.184 91.1712 593.041C81.0712 572.469 71.7971 551.117 72.5781 543.389C72.3361 545.131 65.3441 598.265 93.2411 636.826Z" fill="#E6E6E6"/>
<path d="M429.019 615.064C429.221 622.619 430.487 630.108 432.779 637.309C432.83 637.476 432.886 637.641 432.941 637.809H446.97C446.955 637.659 446.94 637.492 446.925 637.309C445.99 626.555 451.333 561.886 457.782 550.693C457.217 551.606 427.931 580.895 429.019 615.064Z" fill="#E6E6E6"/>
<path d="M430.073 637.306C430.19 637.473 430.311 637.64 430.436 637.806H440.961C440.881 637.664 440.789 637.497 440.682 637.306C438.943 634.168 433.797 624.786 429.021 615.061C423.89 604.609 419.178 593.761 419.575 589.835C419.451 590.723 415.901 617.718 430.073 637.306Z" fill="#E6E6E6"/>
<path d="M345.964 184.36L310.254 209.76L332.474 212.14L363.424 185.95L345.964 184.36Z" fill="#090814"/>
<path d="M591.884 156.79L636.453 157.453L623.476 116.29L594.038 122.44C598.724 132.465 597.728 143.989 591.884 156.79Z" fill="#FFB9B9"/>
<path d="M204.254 616.273H232.754L246.307 533.428H204.249L204.254 616.273Z" fill="#9F616A"/>
<path d="M192.75 322.149C192.75 322.149 183.442 332.089 198.85 370.837V583.3H238.208L257.065 478.742L277.06 327.506L192.75 322.149Z" fill="#F2F2F2"/>
<path d="M142.879 286.646C139.928 286.638 137.097 285.481 134.985 283.42C132.874 281.358 131.649 278.556 131.57 275.606L129.226 187.268L169.335 111.175C170.245 109.462 171.578 108.009 173.206 106.954C174.835 105.898 176.706 105.276 178.642 105.145L209.208 103.183L206.569 281.248L143.869 286.606C143.539 286.633 143.209 286.646 142.879 286.646Z" fill="#1D84F4"/>
<path d="M294.191 353.243L293.644 353.16C229.744 343.414 181.524 334.072 181.044 333.978L180.444 333.862L197.2 293.119C197.068 288.862 193.442 169.311 200.383 134.963C207.103 101.712 238.777 96.2632 242.383 95.7502L246.007 83.7422L291.794 107.568L299.78 135.052L301.402 210.379L294.191 353.243Z" fill="#090814"/>
<path d="M231.268 239.206C201.768 239.206 177.768 207.131 177.768 167.706C177.768 128.281 201.768 96.2061 231.268 96.2061C260.768 96.2061 284.768 128.281 284.768 167.706C284.768 207.131 260.768 239.206 231.268 239.206ZM231.268 103.206C205.628 103.206 184.768 132.141 184.768 167.706C184.768 203.271 205.628 232.206 231.268 232.206C256.908 232.206 277.768 203.271 277.768 167.706C277.768 132.141 256.908 103.206 231.268 103.206Z" fill="#1D84F4"/>
<path d="M321.768 198.206C319.705 198.205 317.665 198.631 315.776 199.457C313.886 200.284 312.188 201.492 310.789 203.006H233.83L205.64 209.006L210.268 244.706L310.55 223.137C312.21 225.013 314.313 226.443 316.668 227.296C319.023 228.15 321.554 228.4 324.031 228.024C326.507 227.647 328.85 226.657 330.845 225.142C332.84 223.627 334.424 221.637 335.452 219.353C336.479 217.068 336.919 214.563 336.729 212.065C336.539 209.568 335.727 207.157 334.366 205.054C333.005 202.951 331.139 201.223 328.939 200.026C326.738 198.83 324.273 198.204 321.768 198.206Z" fill="#9F616A"/>
<path d="M316.119 78.6824C330.604 64.1974 330.604 40.7127 316.119 26.2278C301.634 11.7428 278.15 11.7428 263.665 26.2278C249.18 40.7127 249.18 64.1974 263.665 78.6824C278.15 93.1673 301.634 93.1673 316.119 78.6824Z" fill="#9F616A"/>
<path d="M255.005 22.806L253.205 19.187L262.253 14.687C262.253 14.687 272.234 -1.55405 290.296 3.00995C308.358 7.57395 316.484 10.31 316.484 10.31L325.509 14.851L320.979 19.358L329.105 22.09L323.676 24.7899L329.992 28.4209L326.592 47.032C326.592 47.032 320.944 32.916 310.092 38.31C299.24 43.704 279.375 35.521 279.375 35.521L262.118 68.9059C262.118 68.9059 258.559 57.2009 252.212 60.3219C252.212 60.3239 236 34.506 255.005 22.806Z" fill="#090814"/>
<path d="M577.293 251.152L575.708 221.418L559.708 208.418L550.439 235.952L498.6 305.095C496.149 305.488 493.862 306.574 492.009 308.226C490.157 309.878 488.816 312.026 488.146 314.416C487.475 316.806 487.504 319.338 488.228 321.712C488.951 324.087 490.34 326.204 492.229 327.814C494.119 329.424 496.43 330.459 498.889 330.797C501.348 331.134 503.852 330.76 506.105 329.719C508.359 328.678 510.267 327.014 511.604 324.922C512.94 322.831 513.65 320.4 513.649 317.918C513.649 317.743 513.63 317.573 513.623 317.4L577.293 251.152Z" fill="#FFB9B9"/>
<path d="M622.257 123.148C637.227 114.966 642.728 96.1967 634.545 81.2273C626.362 66.2578 607.594 60.7563 592.624 68.9393C577.655 77.1222 572.153 95.891 580.336 110.86C588.519 125.83 607.288 131.331 622.257 123.148Z" fill="#FFB9B9"/>
<path d="M645.205 89.6811C645.308 84.4791 644.364 79.3094 642.428 74.4797C640.493 69.65 637.606 65.2588 633.939 61.5675C630.272 57.8761 625.9 54.96 621.084 52.9926C616.267 51.0252 611.104 50.0466 605.901 50.1152C600.698 50.1837 595.563 51.298 590.799 53.3917C586.036 55.4854 581.743 58.5157 578.174 62.3024C574.606 66.0891 571.836 70.5547 570.028 75.4338C568.221 80.3129 567.413 85.5056 567.654 90.7031C594.094 90.7601 620.533 90.8161 645.205 89.6811Z" fill="#090814"/>
<path d="M557.839 282.149C557.839 282.149 552.812 355.16 555.539 377.432C558.266 399.704 575.932 588.674 575.932 588.674H607.1L617.029 364.92L638.255 594.196L671.247 591.448L679.833 367.566C679.833 367.566 677.772 282.72 661.02 274.212L557.839 282.149Z" fill="#090814"/>
<path d="M592.982 354.523C576.525 354.517 560.307 350.59 545.672 343.066L545.352 342.902L557.736 260.73L556.936 162.796C556.914 160.108 557.427 157.443 558.447 154.955C559.466 152.468 560.97 150.208 562.872 148.308C564.774 146.409 567.035 144.907 569.523 143.89C572.012 142.873 574.678 142.362 577.366 142.387L643.817 142.997C646.759 143.024 649.664 143.656 652.351 144.854C655.039 146.052 657.451 147.79 659.438 149.96C661.424 152.131 662.943 154.686 663.9 157.469C664.856 160.251 665.23 163.201 664.998 166.134L658.779 244.644L679.344 308.368L675.77 313.12C666.133 325.974 653.635 336.408 639.266 343.594C624.897 350.779 609.052 354.52 592.987 354.52L592.982 354.523Z" fill="#F2F2F2"/>
<path d="M550.255 226.877L557.218 155.825L559.456 152.64C560.989 150.459 562.938 148.602 565.19 147.176C567.443 145.75 569.955 144.783 572.582 144.331C575.209 143.878 577.9 143.949 580.5 144.539C583.1 145.128 585.557 146.226 587.732 147.768L589.65 149.129L587.757 221.134L550.255 226.877Z" fill="#F2F2F2"/>
<path d="M835.58 574.006C853.58 569.033 861.263 596.369 843.307 601.501C825.307 606.477 817.625 579.141 835.58 574.006Z" fill="#090814"/>
<path d="M735.772 609.193C753.772 604.22 761.455 631.556 743.499 636.688C725.5 641.66 717.817 614.324 735.772 609.193Z" fill="#090814"/>
<path d="M695.379 320.885L695.657 320.807L742.024 446.689L748.137 444.971L701.437 318.186C701.336 316.232 700.569 314.371 699.265 312.913C697.961 311.454 696.196 310.486 694.266 310.168C671.078 306.501 661.679 327.085 661.679 327.085L661.772 327.222L709.172 455.922L715.285 454.204L669.28 329.291C683.287 315.437 695.379 320.885 695.379 320.885Z" fill="#090814"/>
<path d="M748.519 616.274C741.904 616.217 735.479 614.049 730.181 610.085C724.884 606.122 720.99 600.571 719.067 594.241C710.218 565.276 689.338 495.876 686.567 477.041C682.967 452.519 703.267 445.541 703.714 445.395C704.26 445.211 712.421 442.927 723.714 439.766C742.914 434.393 771.927 426.273 772.993 425.793C777.489 424.23 782.259 423.613 787.004 423.979C791.749 424.346 796.368 425.688 800.57 427.923C804.902 430.201 808.726 433.336 811.808 437.138C814.89 440.94 817.167 445.33 818.5 450.039L848.365 556.292C850.208 562.806 849.692 569.761 846.907 575.931C844.122 582.101 839.247 587.089 833.142 590.015C810.098 601.086 776.301 615.855 748.97 616.272L748.519 616.274Z" fill="#1D84F4"/>
<path d="M690.448 316.531L675.435 228.831L673.76 199.231L649.489 207.181L669.959 322.015C669.133 324.25 668.937 326.669 669.393 329.007C669.849 331.346 670.939 333.514 672.545 335.275C674.15 337.036 676.208 338.321 678.495 338.991C680.782 339.661 683.208 339.689 685.51 339.072C687.811 338.455 689.899 337.218 691.545 335.495C693.19 333.771 694.33 331.629 694.84 329.301C695.35 326.974 695.21 324.551 694.436 322.298C693.661 320.044 692.282 318.047 690.449 316.525L690.448 316.531Z" fill="#FFB9B9"/>
<path d="M679.541 223.333L641.658 221.272L632.758 149.793L633.624 149.042C635.757 147.192 638.235 145.781 640.915 144.89C643.595 144 646.424 143.648 649.24 143.854C652.057 144.06 654.805 144.82 657.327 146.091C659.849 147.361 662.095 149.118 663.936 151.259L665.688 153.297L665.714 153.426L679.541 223.333Z" fill="#F2F2F2"/>
<path d="M833.809 572.486L795.089 441.434L704.04 467.165L703.496 465.241L796.447 438.972L796.727 439.92L835.727 571.92L833.809 572.486Z" fill="#3F3D56"/>
<path d="M145.769 277.249L141.646 187.349L183.878 104.795L185.658 105.706L143.669 187.787L147.769 277.158L145.769 277.249Z" fill="#3F3D56"/>
<path d="M922 639.806H1C0.734784 639.806 0.480429 639.701 0.292892 639.513C0.105356 639.326 0 639.071 0 638.806C0 638.541 0.105356 638.287 0.292892 638.099C0.480429 637.912 0.734784 637.806 1 637.806H922C922.265 637.806 922.52 637.912 922.707 638.099C922.895 638.287 923 638.541 923 638.806C923 639.071 922.895 639.326 922.707 639.513C922.52 639.701 922.265 639.806 922 639.806Z" fill="#CCCCCC"/>
<path d="M210.761 251.396L201.961 225.216L199.832 137.947L203.582 125.565C204.931 121.108 207.167 116.97 210.154 113.398C213.141 109.826 216.818 106.894 220.966 104.778C225.114 102.661 229.646 101.403 234.291 101.08C238.936 100.757 243.599 101.376 247.999 102.898C252.4 104.42 256.448 106.815 259.9 109.939C263.353 113.063 266.14 116.852 268.093 121.079C270.046 125.306 271.126 129.884 271.268 134.538C271.409 139.192 270.61 143.827 268.917 148.165L248.817 199.671L249.839 201.654L293.385 201.301L308.853 229.144L210.761 251.396Z" fill="#090814"/>
<path d="M488.166 437.696L488.135 437.702L439.871 447.364L398.352 464.084C397.816 464.3 397.242 464.409 396.663 464.403C396.084 464.397 395.513 464.278 394.98 464.051C394.448 463.824 393.965 463.495 393.56 463.082C393.155 462.669 392.835 462.18 392.619 461.643C392.569 461.517 392.524 461.389 392.484 461.258L362.153 359.696C361.835 358.644 361.922 357.511 362.399 356.52C362.876 355.53 363.708 354.755 364.729 354.348L407.007 337.322L407.038 337.316L455.302 327.654L496.821 310.934C497.358 310.718 497.932 310.61 498.511 310.615C499.089 310.621 499.661 310.741 500.193 310.967C500.726 311.194 501.208 311.523 501.613 311.937C502.018 312.35 502.338 312.839 502.554 313.375C502.605 313.501 502.65 313.63 502.689 313.76L533.02 415.322C533.339 416.374 533.251 417.508 532.774 418.498C532.297 419.488 531.466 420.264 530.444 420.67L488.166 437.696Z" fill="#1D84F4"/>
<path d="M436.375 369.475C425.307 365.569 413.868 362.148 402.375 359.306L401.798 359.163L407.632 378.698L437.356 369.821L436.375 369.475ZM408.09 377.855L402.79 360.108C413.727 362.831 424.611 366.078 435.167 369.769L408.09 377.855ZM494.372 395.883C489.22 392.97 483.994 390.18 478.694 387.514C477.233 386.781 475.766 386.055 474.294 385.338C465.319 380.972 456.207 376.992 446.958 373.397L446.85 373.355L409.38 384.545L419.612 418.806L495.064 396.272L494.372 395.883ZM420.072 417.965L410.227 385L446.827 374.07C455.746 377.537 464.564 381.379 473.279 385.596C474.792 386.329 476.3 387.072 477.802 387.823C483.051 390.451 488.233 393.204 493.348 396.081L420.072 417.965ZM494.372 395.883C489.22 392.97 483.994 390.18 478.694 387.514C477.233 386.781 475.766 386.055 474.294 385.338C465.319 380.972 456.207 376.992 446.958 373.397L446.85 373.355L409.38 384.545L419.612 418.806L495.064 396.272L494.372 395.883ZM420.072 417.965L410.227 385L446.827 374.07C455.746 377.537 464.564 381.379 473.279 385.596C474.792 386.329 476.3 387.072 477.802 387.823C483.051 390.451 488.233 393.204 493.348 396.081L420.072 417.965ZM436.379 369.475C425.311 365.569 413.872 362.148 402.379 359.306L401.802 359.163L407.636 378.698L437.36 369.821L436.379 369.475ZM408.094 377.855L402.794 360.108C413.731 362.831 424.615 366.078 435.171 369.769L408.094 377.855ZM436.379 369.475C425.311 365.569 413.872 362.148 402.379 359.306L401.802 359.163L407.636 378.698L437.36 369.821L436.379 369.475ZM408.094 377.855L402.794 360.108C413.731 362.831 424.615 366.078 435.171 369.769L408.094 377.855ZM494.376 395.883C489.224 392.97 483.998 390.18 478.698 387.514C477.237 386.781 475.77 386.055 474.298 385.338C465.323 380.972 456.211 376.992 446.962 373.397L446.854 373.355L409.38 384.545L419.612 418.806L495.064 396.272L494.376 395.883ZM420.076 417.965L410.231 385L446.831 374.07C455.75 377.537 464.568 381.379 473.283 385.596C474.796 386.329 476.304 387.072 477.806 387.823C483.055 390.451 488.237 393.204 493.352 396.081L420.076 417.965ZM389.208 434.256L389.402 434.906L415.056 427.245L417.869 436.664L392.215 444.325L392.409 444.975L418.709 437.12L415.509 426.402L389.208 434.256ZM426.308 441.218L428.274 447.8L428.906 447.546L427.152 441.674L527.18 411.8L526.986 411.15L426.308 441.218ZM522.237 395.236L522.043 394.586L421.358 424.655L424.558 435.373L525.24 405.306L525.046 404.656L425.015 434.529L422.2 425.106L522.237 395.236ZM447.464 366.097C432.132 360.206 416.382 355.465 400.345 351.913L398.381 345.336L397.749 345.59L399.728 352.218L400.392 352.618C416.366 356.165 432.055 360.896 447.328 366.77L447.436 366.812L508.317 348.63L508.123 347.98L447.464 366.097ZM400.948 379.989L375.294 387.651L375.488 388.301L401.788 380.446L392.062 347.88L391.43 348.134L400.948 379.989ZM510.065 354.477L456.543 370.461L457.415 370.827C465.624 374.281 473.811 378.099 481.978 382.282C483.139 382.876 484.298 383.478 485.457 384.089C491.222 387.116 496.942 390.312 502.617 393.677L503.247 393.834L520.298 388.742L520.104 388.092L503.094 393.172C497.479 389.839 491.812 386.667 486.094 383.658C484.95 383.058 483.805 382.462 482.658 381.87C474.665 377.764 466.628 373.997 458.549 370.57L510.262 355.126L510.065 354.477ZM394.155 450.82L394.349 451.47L420 443.806L421.951 450.341L422.583 450.087L420.455 442.963L394.155 450.82ZM377.23 394.146L377.424 394.796L403.078 387.135L412.923 420.1L387.269 427.761L387.463 428.411L413.763 420.556L403.53 386.292L377.23 394.146ZM436.375 369.475C425.307 365.569 413.868 362.148 402.375 359.306L401.798 359.163L407.632 378.698L437.356 369.821L436.375 369.475ZM408.09 377.855L402.79 360.108C413.727 362.831 424.611 366.078 435.167 369.769L408.09 377.855ZM494.372 395.883C489.22 392.97 483.994 390.18 478.694 387.514C477.233 386.781 475.766 386.055 474.294 385.338C465.319 380.972 456.207 376.992 446.958 373.397L446.85 373.355L409.38 384.545L419.612 418.806L495.064 396.272L494.372 395.883ZM420.072 417.965L410.227 385L446.827 374.07C455.746 377.537 464.564 381.379 473.279 385.596C474.792 386.329 476.3 387.072 477.802 387.823C483.051 390.451 488.233 393.204 493.348 396.081L420.072 417.965ZM436.379 369.475C425.311 365.569 413.872 362.148 402.379 359.306L401.802 359.163L407.636 378.698L437.36 369.821L436.379 369.475ZM408.094 377.855L402.794 360.108C413.731 362.831 424.615 366.078 435.171 369.769L408.094 377.855ZM494.376 395.883C489.224 392.97 483.998 390.18 478.698 387.514C477.237 386.781 475.77 386.055 474.298 385.338C465.323 380.972 456.211 376.992 446.962 373.397L446.854 373.355L409.38 384.545L419.612 418.806L495.064 396.272L494.376 395.883ZM420.076 417.965L410.231 385L446.831 374.07C455.75 377.537 464.568 381.379 473.283 385.596C474.796 386.329 476.304 387.072 477.806 387.823C483.055 390.451 488.237 393.204 493.352 396.081L420.076 417.965Z" fill="white"/>
<path d="M444.993 372.535C447.449 380.76 438.028 403.535 438.028 403.535C438.028 403.535 417.662 389.659 415.206 381.435C414.622 379.479 414.428 377.427 414.637 375.397C414.846 373.366 415.452 371.397 416.422 369.6C417.392 367.804 418.706 366.217 420.289 364.928C421.872 363.64 423.694 362.676 425.65 362.092C427.606 361.507 429.657 361.314 431.688 361.522C433.719 361.731 435.688 362.337 437.484 363.307C439.281 364.277 440.868 365.591 442.157 367.174C443.445 368.758 444.409 370.579 444.993 372.535Z" fill="#F2F2F2"/>
<path d="M436.716 374.306C437.118 375.653 437.112 377.088 436.698 378.432C436.284 379.775 435.482 380.965 434.391 381.852C433.301 382.739 431.972 383.283 430.573 383.415C429.174 383.546 427.767 383.26 426.53 382.592C425.294 381.925 424.283 380.905 423.625 379.663C422.968 378.42 422.694 377.011 422.838 375.613C422.982 374.215 423.537 372.891 424.433 371.808C425.33 370.726 426.527 369.933 427.873 369.531C429.679 368.992 431.625 369.192 433.283 370.087C434.942 370.983 436.176 372.5 436.716 374.306Z" fill="#1D84F4"/>
<path d="M440.04 414.456C442.354 414.456 444.23 412.58 444.23 410.266C444.23 407.952 442.354 406.076 440.04 406.076C437.726 406.076 435.85 407.952 435.85 410.266C435.85 412.58 437.726 414.456 440.04 414.456Z" fill="#F2F2F2"/>
<path d="M485.758 355.176L456.639 363.876C456.603 363.888 456.566 363.896 456.528 363.9L463.176 335.932C463.216 335.759 463.301 335.598 463.423 335.468C463.545 335.338 463.699 335.243 463.87 335.192C464.041 335.141 464.222 335.137 464.395 335.179C464.568 335.221 464.727 335.309 464.855 335.432L478.879 348.68L479.551 349.314L485.758 355.176Z" fill="white"/>
<path opacity="0.2" d="M485.758 355.175L475.816 358.144L478.58 349.598L478.78 348.982L478.88 348.674L479.551 349.308L485.758 355.175Z" fill="black"/>
<path d="M501.972 350.334L476.786 357.856L479.549 349.309L479.749 348.693L483.349 337.555C483.419 337.381 483.526 337.223 483.661 337.092C483.796 336.961 483.958 336.859 484.135 336.795C484.311 336.73 484.5 336.704 484.688 336.717C484.876 336.73 485.059 336.782 485.225 336.87C485.269 336.897 485.311 336.926 485.351 336.957L501.972 350.334Z" fill="white"/>
<path d="M200.512 638.331L270.451 639.894C275.214 639.549 279.251 636.241 280.156 631.949C280.586 629.78 280.166 627.53 278.983 625.662C277.8 623.795 275.945 622.453 273.801 621.915C258.907 617.499 254.872 612.613 247.657 604.385C239.118 589.817 238.447 590.439 232.796 600.269C220.224 611.965 211.788 608.338 200.068 601.121L192.394 628.755C192.066 629.899 192.027 631.107 192.28 632.271C192.533 633.434 193.07 634.517 193.843 635.423C194.675 636.364 195.703 637.112 196.855 637.615C198.007 638.117 199.256 638.361 200.512 638.331Z" fill="#090814"/>
</svg>
