<svg width="26" height="26" viewBox="0 0 26 26" fill="none" xmlns="http://www.w3.org/2000/svg">
<g clip-path="url(#clip0_1316_17540)">
<path d="M23.92 19.9135V6.23999C24.8005 6.28447 25.3067 6.8401 25.3067 7.763V18.3905C25.3067 19.3134 24.8005 19.8691 23.92 19.9135Z" fill="black"/>
<path d="M21.4933 21.84C21.5526 21.4931 21.5819 21.1251 21.5819 20.7383V4.9148C21.5819 4.52801 21.5526 4.16014 21.4934 3.81332C22.6062 3.93078 23.2267 4.63198 23.2267 5.77771V19.8862C23.2267 21.0319 22.6061 21.7242 21.4933 21.84Z" fill="black"/>
<path d="M4.50666 21.84C4.44743 21.4931 4.41808 21.1251 4.41808 20.7383L4.41808 4.9148C4.41808 4.52801 4.44743 4.16014 4.50663 3.81332C3.39383 3.93078 2.77333 4.63198 2.77333 5.77771L2.77333 19.8862C2.77333 21.0319 3.39387 21.7242 4.50666 21.84Z" fill="black"/>
<path d="M2.08 19.9135L2.08 6.23999C1.19955 6.28447 0.693333 6.8401 0.693333 7.763L0.693333 18.3905C0.693333 19.3134 1.19955 19.8691 2.08 19.9135Z" fill="black"/>
<path d="M5.2 5.11067L5.2 20.8894C5.2 23.1373 6.18506 24.2667 8.13624 24.2667L17.8637 24.2667C19.8149 24.2667 20.8 23.1373 20.8 20.8894V5.11067C20.8 2.86269 19.8149 1.73334 17.8637 1.73334L8.13624 1.73334C6.18506 1.73334 5.2 2.86269 5.2 5.11067Z" fill="black"/>
</g>
<defs>
<clipPath id="clip0_1316_17540">
<rect width="26" height="26" fill="white"/>
</clipPath>
</defs>
</svg>
