<svg width="888" height="651" viewBox="0 0 888 651" fill="none" xmlns="http://www.w3.org/2000/svg">
<g clip-path="url(#clip0_1314_12018)">
<path d="M467.054 645.101H459.629L462.104 499.91H464.579L467.054 645.101Z" fill="#E6E6E6"/>
<path d="M472.911 408.37L484.876 389.879C481.327 380.077 477.229 370.484 472.6 361.144L464.864 367.393L470.99 357.925C465.151 346.433 460.558 339.192 460.558 339.192C460.558 339.192 436.562 377.006 428.545 417.042L443.898 440.771L426.901 427.042C426.296 431.706 425.984 436.403 425.969 441.106C425.969 488.522 441.455 526.96 460.558 526.96C479.661 526.96 495.146 488.522 495.146 441.106C495.146 426.406 491.821 411.028 487.234 396.802L472.911 408.37Z" fill="#E6E6E6"/>
<path d="M279.016 645.101H271.592L274.067 499.91H276.541L279.016 645.101Z" fill="#E6E6E6"/>
<path d="M287.657 408.37L299.622 389.879C296.073 380.077 291.975 370.484 287.346 361.144L279.61 367.393L285.736 357.925C279.897 346.433 275.304 339.192 275.304 339.192C275.304 339.192 251.308 377.006 243.291 417.042L258.645 440.771L241.647 427.042C241.042 431.706 240.731 436.403 240.715 441.106C240.715 488.522 256.201 526.96 275.304 526.96C294.407 526.96 309.893 488.522 309.893 441.106C309.893 426.406 306.567 411.028 301.98 396.802L287.657 408.37Z" fill="#E6E6E6"/>
<path d="M371.285 644.652H356.436L361.386 346.022H366.336L371.285 644.652Z" fill="#E6E6E6"/>
<path d="M384.194 157.738L408.865 119.611C401.548 99.4016 393.098 79.6205 383.554 60.3625L367.602 73.2472L380.233 53.7262C368.195 30.0303 358.723 15.1006 358.723 15.1006C358.723 15.1006 309.246 93.0687 292.716 175.619L324.374 224.545L289.327 196.238C288.079 205.854 287.437 215.539 287.404 225.236C287.404 323.004 319.335 402.26 358.723 402.26C398.111 402.26 430.042 323.004 430.042 225.236C430.042 194.927 423.185 163.218 413.726 133.885L384.194 157.738Z" fill="#E6E6E6"/>
<path d="M299.194 136.941C337.009 136.941 367.665 106.286 367.665 68.4705C367.665 30.6553 337.009 0 299.194 0C261.379 0 230.724 30.6553 230.724 68.4705C230.724 106.286 261.379 136.941 299.194 136.941Z" fill="#E6E6E6"/>
<path d="M888 644.24H0V646.481H888V644.24Z" fill="#3F3D56"/>
<path d="M799.232 292.422C799.603 292.422 799.97 292.349 800.312 292.207C800.654 292.065 800.965 291.858 801.227 291.596C801.489 291.334 801.697 291.023 801.839 290.68C801.981 290.338 802.054 289.971 802.054 289.601V259.504C802.058 259.052 801.952 258.605 801.746 258.202C801.539 257.799 801.238 257.453 800.868 257.192C800.498 256.932 800.07 256.765 799.621 256.706C799.173 256.648 798.716 256.699 798.292 256.855V222.825C798.292 221.589 798.048 220.366 797.576 219.225C797.103 218.084 796.41 217.047 795.537 216.174C794.664 215.301 793.627 214.608 792.486 214.135C791.345 213.663 790.122 213.419 788.887 213.419H481.341C480.106 213.419 478.883 213.663 477.741 214.135C476.6 214.608 475.564 215.301 474.69 216.174C473.817 217.047 473.124 218.084 472.651 219.225C472.179 220.366 471.936 221.589 471.936 222.825V635.707C471.936 638.202 472.926 640.594 474.69 642.358C476.454 644.121 478.846 645.112 481.341 645.112H788.887C791.381 645.112 793.773 644.121 795.537 642.358C797.301 640.594 798.292 638.202 798.292 635.707V334.572C798.716 334.729 799.173 334.78 799.621 334.721C800.07 334.663 800.498 334.496 800.868 334.235C801.238 333.975 801.539 333.628 801.746 333.226C801.952 332.823 802.058 332.376 802.054 331.923V301.827C802.058 301.374 801.952 300.928 801.746 300.525C801.539 300.122 801.238 299.776 800.868 299.515C800.498 299.254 800.07 299.088 799.621 299.029C799.173 298.97 798.716 299.022 798.292 299.178V292.249C798.593 292.36 798.911 292.419 799.232 292.422Z" fill="#3F3D56"/>
<path d="M770.077 231.759C771.312 231.759 772.535 232.003 773.676 232.475C774.817 232.948 775.854 233.641 776.727 234.514C777.601 235.387 778.293 236.424 778.766 237.565C779.239 238.706 779.482 239.929 779.482 241.164V617.367C779.482 619.862 778.491 622.254 776.727 624.018C774.963 625.782 772.571 626.772 770.077 626.772H500.151C497.657 626.772 495.265 625.781 493.501 624.018C491.737 622.254 490.746 619.862 490.746 617.367V241.164C490.746 238.67 491.737 236.278 493.501 234.514C495.265 232.75 497.657 231.759 500.151 231.759H770.077Z" fill="white"/>
<path d="M635.114 226.587C637.191 226.587 638.876 224.902 638.876 222.825C638.876 220.747 637.191 219.062 635.114 219.062C633.036 219.062 631.352 220.747 631.352 222.825C631.352 224.902 633.036 226.587 635.114 226.587Z" fill="white"/>
<path d="M746.808 281.11H515.639V304.083H746.808V281.11Z" fill="#1D84F4"/>
<path d="M746.808 335.224H515.639V343.925H746.808V335.224Z" fill="#E6E6E6"/>
<path d="M746.808 361.782H515.639V370.483H746.808V361.782Z" fill="#E6E6E6"/>
<path d="M635.083 388.677H515.639V397.378H635.083V388.677Z" fill="#E6E6E6"/>
<path d="M746.808 416.049H515.639V424.75H746.808V416.049Z" fill="#E6E6E6"/>
<path d="M746.808 443.421H515.639V452.122H746.808V443.421Z" fill="#E6E6E6"/>
<path d="M631.083 470.792H515.639V479.494H631.083V470.792Z" fill="#E6E6E6"/>
<path d="M746.808 498.165H515.639V506.866H746.808V498.165Z" fill="#E6E6E6"/>
<path d="M746.808 525.537H515.639V534.238H746.808V525.537Z" fill="#E6E6E6"/>
<path d="M747.084 559.11H674.084V583.11H747.084V559.11Z" fill="#1D84F4"/>
<path d="M267.946 366.082H266.302V311.307C266.302 302.863 262.947 294.764 256.976 288.793C251.005 282.822 242.907 279.468 234.463 279.468H117.785C113.604 279.468 109.464 280.291 105.601 281.891C101.738 283.491 98.2283 285.837 95.2717 288.793C92.3152 291.75 89.97 295.26 88.3699 299.123C86.7698 302.985 85.9463 307.126 85.9463 311.307V613.273C85.9463 617.454 86.7698 621.595 88.3699 625.458C89.97 629.32 92.3152 632.83 95.2717 635.787C98.2283 638.743 101.738 641.089 105.601 642.689C109.464 644.289 113.604 645.112 117.785 645.112H234.463C242.907 645.112 251.005 641.758 256.976 635.787C262.947 629.816 266.302 621.718 266.302 613.273V405.004H267.946V366.082Z" fill="#3F3D56"/>
<path d="M259.175 309.123V612.563C259.175 618.869 256.669 624.917 252.21 629.377C247.751 633.836 241.703 636.341 235.396 636.341H118.495C112.189 636.341 106.141 633.836 101.681 629.377C97.222 624.917 94.7168 618.869 94.7168 612.563V309.123C94.7168 303.439 96.9748 297.987 100.994 293.968C105.014 289.948 110.465 287.69 116.149 287.69H132.654C132.031 289.249 131.753 290.925 131.84 292.602C131.928 294.278 132.378 295.916 133.16 297.402C134.111 299.042 135.459 300.418 137.08 301.403C138.701 302.388 140.543 302.951 142.438 303.04H210.451C212.346 302.951 214.188 302.388 215.809 301.403C217.43 300.418 218.778 299.042 219.729 297.401C220.511 295.915 220.961 294.278 221.048 292.601C221.135 290.925 220.858 289.249 220.234 287.69H237.742C243.427 287.69 248.878 289.948 252.897 293.968C256.917 297.987 259.175 303.439 259.175 309.123Z" fill="white"/>
<path d="M394.632 226.764C394.632 226.764 382.23 222.335 374.257 240.052C366.284 257.769 353.882 277.258 353.882 277.258L360.969 279.03C360.969 279.03 362.741 266.628 367.17 264.856L365.398 280.802C365.398 280.802 418.55 299.405 442.469 279.03L441.583 272.829C441.583 272.829 445.126 273.715 445.126 279.03L447.784 276.373C447.784 276.373 445.126 271.057 437.153 263.97C431.92 259.319 430.122 250.469 429.504 244.936C429.041 240.316 427.193 235.944 424.201 232.393C418.903 226.253 409.249 219.726 394.632 226.764Z" fill="#2F2E41"/>
<path d="M321.794 378.753L333.391 393.513L340.772 385.078L334.446 374.535L321.794 378.753Z" fill="#FBBEBE"/>
<path d="M317.577 605.429L313.36 627.569L323.903 632.841L331.283 627.569V605.429H317.577Z" fill="#FBBEBE"/>
<path d="M391.378 605.429L395.596 627.569L385.053 632.841L377.672 627.569V605.429H391.378Z" fill="#FBBEBE"/>
<path d="M348.152 406.165L333.391 511.595L312.305 607.538L337.609 610.701L357.641 521.084L382.944 445.174L379.781 535.845L374.51 610.701H393.487L407.193 509.487L422.349 434.236L421.953 406.165H348.152Z" fill="#2F2E41"/>
<path d="M320.74 625.461C320.74 625.461 315.469 619.135 312.306 622.298C309.143 625.461 301.763 638.112 301.763 638.112C301.763 638.112 284.894 647.601 298.6 649.71C312.306 651.818 316.523 649.71 316.523 648.655C316.523 647.601 318.632 644.438 318.632 644.438L323.903 645.493L331.283 643.384C331.283 643.384 334.446 623.958 331.283 624.709C328.12 625.461 321.795 628.624 320.74 625.461Z" fill="#2F2E41"/>
<path d="M388.215 625.461C388.215 625.461 393.487 619.135 396.65 622.298C399.813 625.461 407.193 638.112 407.193 638.112C407.193 638.112 424.062 647.601 410.356 649.71C396.65 651.818 392.433 649.71 392.433 648.655C392.433 647.601 390.324 644.438 390.324 644.438L385.053 645.493L377.672 643.384C377.672 643.384 374.509 623.958 377.672 624.709C380.835 625.461 387.161 628.624 388.215 625.461Z" fill="#2F2E41"/>
<path d="M398.232 281.229C409.877 281.229 419.318 271.788 419.318 260.143C419.318 248.497 409.877 239.057 398.232 239.057C386.586 239.057 377.146 248.497 377.146 260.143C377.146 271.788 386.586 281.229 398.232 281.229Z" fill="#FBBEBE"/>
<path d="M412.464 273.322C412.464 273.322 410.356 291.245 411.41 295.462C412.464 299.679 414.573 306.005 414.573 306.005L380.835 299.68C380.835 299.68 390.324 279.648 388.215 276.485C386.106 273.322 412.464 273.322 412.464 273.322Z" fill="#FBBEBE"/>
<path d="M415.628 298.625L380.836 291.245L360.804 413.545C369.833 411.079 379.402 411.447 388.216 414.599C402.976 419.871 423.008 414.599 423.008 414.599L418.791 299.68L415.628 298.625Z" fill="#1D84F4"/>
<path d="M387.922 281.559L375.564 288.082L359.749 291.245L342.88 331.309L344.989 359.775C344.989 359.775 327.066 392.459 324.957 410.382C324.957 410.382 327.066 437.794 361.858 436.74L385.053 372.427C385.053 372.427 394.541 323.928 385.053 310.222C385.053 310.222 391.845 284.524 387.922 281.559Z" fill="#2F2E41"/>
<path d="M366.075 291.245L362.661 290.663L359.749 291.245C359.749 291.245 352.369 292.299 343.935 299.679C335.5 307.06 307.034 330.254 304.925 336.58C302.817 342.906 303.871 353.449 307.034 359.775C310.197 366.101 316.523 374.535 316.523 374.535L319.685 381.916L337.609 376.644C337.609 376.644 326.011 354.504 327.066 345.015L348.152 328.146L366.075 291.245Z" fill="#2F2E41"/>
<path d="M411.297 286.325L427.224 306.005L435.659 316.548L425.116 352.395L419.844 382.97C419.844 382.97 432.496 431.468 421.953 446.228C421.953 446.228 415.627 453.609 413.518 445.174C411.41 436.74 411.41 396.676 411.41 396.676C411.41 396.676 402.975 343.96 407.193 330.254C411.41 316.548 406.966 288.786 411.297 286.325Z" fill="#2F2E41"/>
<path d="M426.17 438.848V449.391C426.17 449.391 424.062 484.184 434.605 479.966C445.148 475.749 437.768 449.391 437.768 449.391L436.713 437.794L426.17 438.848Z" fill="#FBBEBE"/>
<path d="M374.726 261.267C382.745 255.464 389.236 248.779 393.53 240.828C393.53 240.828 408.246 257.179 417.239 257.997C426.232 258.814 418.057 238.375 418.057 238.375L401.705 234.288L386.172 235.923L373.908 244.098L374.726 261.267Z" fill="#2F2E41"/>
<path d="M427.225 313.385L435.659 316.548L436.714 327.091L440.931 391.404L438.822 439.903L423.008 440.957L417.736 387.187L415.628 328.146L427.225 313.385Z" fill="#2F2E41"/>
<path d="M240.793 373.689H112.639V386.425H240.793V373.689Z" fill="#1D84F4"/>
<path d="M240.793 403.688H112.639V408.512H240.793V403.688Z" fill="#E6E6E6"/>
<path d="M240.793 418.412H112.639V423.235H240.793V418.412Z" fill="#E6E6E6"/>
<path d="M178.856 433.321H112.639V438.145H178.856V433.321Z" fill="#E6E6E6"/>
<path d="M240.793 448.496H112.639V453.319H240.793V448.496Z" fill="#E6E6E6"/>
<path d="M240.793 463.67H112.639V468.494H240.793V463.67Z" fill="#E6E6E6"/>
<path d="M176.638 478.844H112.639V483.668H176.638V478.844Z" fill="#E6E6E6"/>
<path d="M240.793 494.019H112.639V498.842H240.793V494.019Z" fill="#E6E6E6"/>
<path d="M240.793 509.193H112.639V514.017H240.793V509.193Z" fill="#E6E6E6"/>
<path d="M240.946 527.805H200.477V541.11H240.946V527.805Z" fill="#1D84F4"/>
</g>
<defs>
<clipPath id="clip0_1314_12018">
<rect width="888" height="650.612" fill="white"/>
</clipPath>
</defs>
</svg>
