<svg width="955" height="712" viewBox="0 0 955 712" fill="none" xmlns="http://www.w3.org/2000/svg">
<g clip-path="url(#clip0_1314_12226)">
<path d="M665.159 710.062C665.159 710.722 665.444 711.252 665.799 711.252H953.749C954.104 711.252 954.389 710.722 954.389 710.062C954.389 709.402 954.104 708.872 953.749 708.872H665.799C665.444 708.872 665.159 709.402 665.159 710.062Z" fill="#E6E6E6"/>
<path d="M739.722 456.692C738.032 465.172 732.002 470.672 726.252 468.972C720.502 467.272 717.212 459.012 718.902 450.532C719.508 447.178 720.999 444.046 723.222 441.462L730.852 405.662L748.692 411.542L739.272 446.212C740.279 449.616 740.427 453.217 739.702 456.692H739.722Z" fill="#9F616A"/>
<path d="M779.932 662.372H758.992V692.082H779.932V662.372Z" fill="#9F616A"/>
<path d="M761.313 709.102C764.893 709.422 782.813 710.842 783.713 706.732C784.184 703.976 783.992 701.148 783.153 698.482C781.433 681.342 780.793 681.152 780.403 681.042C779.793 680.862 778.013 681.712 775.123 683.572L774.943 683.692L774.903 683.902C774.853 684.172 773.573 690.462 767.503 689.492C763.343 688.832 761.993 687.912 761.563 687.462C762.01 687.266 762.391 686.947 762.663 686.542C762.892 686.138 763.032 685.69 763.071 685.227C763.111 684.764 763.05 684.299 762.893 683.862C762.052 681.355 760.973 678.934 759.673 676.632L759.403 676.152L735.603 692.212L720.903 696.412C720.358 696.567 719.855 696.843 719.431 697.219C719.007 697.594 718.673 698.06 718.453 698.582C718.15 699.307 718.079 700.108 718.251 700.875C718.423 701.642 718.829 702.336 719.413 702.862C722.083 705.262 727.383 709.372 732.953 709.882C734.433 710.022 736.393 710.072 738.593 710.072C747.783 710.072 761.203 709.122 761.303 709.102H761.313Z" fill="#2F2E43"/>
<path d="M837.943 662.372H817.003V692.082H837.943V662.372Z" fill="#9F616A"/>
<path d="M819.323 709.102C822.903 709.422 840.823 710.842 841.723 706.732C842.194 703.976 842.002 701.148 841.163 698.482C839.443 681.342 838.803 681.152 838.413 681.042C837.803 680.862 836.023 681.712 833.133 683.572L832.953 683.692L832.913 683.902C832.863 684.172 831.583 690.462 825.513 689.492C821.353 688.832 820.003 687.912 819.573 687.462C820.02 687.266 820.401 686.947 820.673 686.542C820.902 686.138 821.041 685.69 821.081 685.227C821.121 684.764 821.06 684.299 820.903 683.862C820.061 681.355 818.983 678.934 817.683 676.632L817.413 676.152L793.613 692.212L778.913 696.412C778.368 696.567 777.865 696.843 777.441 697.219C777.017 697.594 776.683 698.06 776.463 698.582C776.159 699.307 776.089 700.108 776.261 700.875C776.433 701.642 776.839 702.336 777.423 702.862C780.093 705.262 785.393 709.372 790.963 709.882C792.443 710.022 794.403 710.072 796.603 710.072C805.793 710.072 819.213 709.122 819.313 709.102H819.323Z" fill="#2F2E43"/>
<path d="M820.973 248.272L788.503 258.942V212.202H817.963L820.973 248.272Z" fill="#9F616A"/>
<path d="M792.522 225.142C810.388 225.142 824.872 210.658 824.872 192.792C824.872 174.925 810.388 160.442 792.522 160.442C774.655 160.442 760.172 174.925 760.172 192.792C760.172 210.658 774.655 225.142 792.522 225.142Z" fill="#9F616A"/>
<path d="M800.763 195.322L796.302 200.732L788.232 186.612C788.232 186.612 777.933 187.142 777.933 179.502C777.933 171.862 768.482 171.642 768.482 171.642C768.482 171.642 755.112 148.292 782.812 154.442C782.812 154.442 802.022 141.282 811.582 152.532C811.582 152.532 840.883 167.282 832.493 192.972L818.562 219.452L815.403 213.462C815.403 213.462 817.312 188.302 800.752 195.312L800.763 195.322Z" fill="#2F2E43"/>
<path d="M757.833 402.182H867.103L840.363 677.872L809.363 675.872L807.833 477.332L788.323 564.462L782.613 674.372L754.363 675.872L751.083 550.842L757.833 402.182Z" fill="#2F2E43"/>
<path d="M822.743 231.182L785.743 240.182L754.113 376.872L757.833 402.182L850.483 417.862L867.103 402.182L822.743 231.182Z" fill="#1D84F4"/>
<path d="M822.178 230.305L835.453 238.532L861.113 244.692L879.838 453.492H820.563L797.083 255.382L822.178 230.305Z" fill="#2F2E43"/>
<path d="M786.002 239.317L792.363 254.952L761.813 465.872H746.053L753.323 259.472L774.723 242.472L786.002 239.317Z" fill="#2F2E43"/>
<path d="M766.013 256.862L753.323 259.472C753.323 259.472 747.763 261.512 745.743 277.312C743.723 293.112 743.373 346.172 743.373 346.172L721.793 431.772L746.303 439.852L757.843 393.792L766.023 256.852L766.013 256.862Z" fill="#2F2E43"/>
<path d="M847.493 423.502C842.343 430.452 834.543 432.842 830.073 428.852C825.603 424.862 826.153 415.992 831.303 409.032C833.282 406.254 835.973 404.06 839.093 402.682L861.293 373.572L874.913 386.512L851.58 413.832C851.034 417.34 849.629 420.659 847.49 423.492L847.493 423.502Z" fill="#9F616A"/>
<path d="M850.973 247.882L861.113 244.692C861.113 244.692 874.852 248.102 879.402 265.262L901.613 348.862L863.943 414.982L843.812 390.542L862.772 329.842L850.962 247.882H850.973Z" fill="#2F2E43"/>
<path d="M676.099 567.153C676.135 567.153 676.171 567.153 676.208 567.153C694.713 566.184 712.153 558.204 724.984 544.835C737.814 531.467 745.071 513.713 745.279 495.185C745.487 476.656 738.63 458.744 726.102 445.091C713.574 431.438 696.317 423.069 677.839 421.686C677.611 421.668 677.381 421.697 677.165 421.772C676.948 421.847 676.75 421.966 676.581 422.122C676.414 422.274 676.28 422.459 676.187 422.666C676.095 422.872 676.046 423.095 676.043 423.322L674.449 565.467C674.445 565.909 674.617 566.334 674.926 566.65C675.235 566.965 675.657 567.145 676.099 567.15V567.153Z" fill="#1D84F4"/>
<path d="M618.938 445.188C619.505 445.195 620.047 445.426 620.444 445.831L669.379 495.875C669.576 496.075 669.731 496.312 669.836 496.573C669.94 496.834 669.992 497.112 669.988 497.393L669.226 565.411C669.224 565.703 669.162 565.991 669.043 566.258C668.924 566.524 668.751 566.763 668.535 566.96C668.319 567.159 668.064 567.312 667.786 567.408C667.508 567.505 667.213 567.543 666.92 567.521C653.314 566.503 640.262 561.71 629.23 553.682C618.198 545.654 609.624 534.709 604.47 522.076C599.316 509.443 597.787 495.623 600.055 482.169C602.323 468.715 608.298 456.16 617.308 445.915C617.503 445.694 617.741 445.516 618.008 445.391C618.275 445.267 618.565 445.198 618.859 445.19L618.938 445.188Z" fill="#E6E6E6"/>
<path d="M668.697 421.102C669.243 421.109 669.766 421.324 670.161 421.702C670.372 421.904 670.54 422.147 670.653 422.416C670.766 422.686 670.822 422.976 670.818 423.268L670.13 484.637C670.125 485.06 669.995 485.471 669.756 485.82C669.517 486.168 669.181 486.438 668.789 486.596C668.396 486.753 667.966 486.79 667.553 486.703C667.14 486.617 666.761 486.409 666.466 486.107L623.766 442.437C623.569 442.236 623.414 441.998 623.31 441.737C623.205 441.476 623.153 441.197 623.156 440.916C623.16 440.634 623.218 440.357 623.329 440.098C623.44 439.84 623.6 439.605 623.802 439.409C623.828 439.384 623.854 439.359 623.881 439.335C636.3 428.404 652.044 421.981 668.566 421.106C668.609 421.103 668.653 421.102 668.697 421.102Z" fill="#090814"/>
<path d="M475.644 711.252H39.032C28.6837 711.24 18.7626 707.125 11.4451 699.807C4.12754 692.49 0.0111985 682.569 -0.000976562 672.221V39.033C0.0106693 28.6844 4.12675 18.7629 11.4443 11.4454C18.7619 4.12777 28.6834 0.0116458 39.032 0H475.643C485.992 0.0116458 495.913 4.12777 503.231 11.4454C510.548 18.7629 514.664 28.6844 514.676 39.033V672.221C514.664 682.57 510.548 692.491 503.231 699.809C495.913 707.126 485.992 711.242 475.643 711.254L475.644 711.252Z" fill="#E6E6E6"/>
<path d="M476.339 686.427H38.1912C35.0013 686.423 31.943 685.154 29.6874 682.899C27.4317 680.643 26.1629 677.585 26.1592 674.395V37.0149C26.1629 33.825 27.4317 30.7667 29.6874 28.5111C31.943 26.2555 35.0013 24.9866 38.1912 24.9829H476.339C479.529 24.9866 482.587 26.2555 484.843 28.5111C487.099 30.7667 488.367 33.825 488.371 37.0149V674.395C488.367 677.585 487.099 680.643 484.843 682.899C482.587 685.154 479.529 686.423 476.339 686.427Z" fill="white"/>
<path d="M255.677 15.2758C257.511 15.2758 258.997 13.7889 258.997 11.9548C258.997 10.1207 257.511 8.63379 255.677 8.63379C253.844 8.63379 252.357 10.1207 252.357 11.9548C252.357 13.7889 253.844 15.2758 255.677 15.2758Z" fill="white"/>
<path d="M433.941 444.949H80.7349C80.4418 444.949 80.1608 444.832 79.9536 444.625C79.7463 444.418 79.6299 444.137 79.6299 443.844V274.551C79.6299 274.258 79.7464 273.976 79.9537 273.769C80.161 273.562 80.4422 273.445 80.7354 273.445C81.0285 273.445 81.3098 273.562 81.5171 273.769C81.7244 273.976 81.8409 274.258 81.8409 274.551V442.738H433.941C434.234 442.738 434.515 442.854 434.723 443.062C434.93 443.269 435.046 443.55 435.046 443.843C435.046 444.136 434.93 444.418 434.723 444.625C434.515 444.832 434.234 444.949 433.941 444.949Z" fill="#3F3D56"/>
<path d="M156.2 432.789H124.074C123.204 432.788 122.37 432.442 121.755 431.827C121.14 431.212 120.794 430.378 120.793 429.508V385.223C120.794 384.353 121.14 383.519 121.755 382.904C122.37 382.289 123.204 381.943 124.074 381.942H156.199C157.069 381.943 157.903 382.289 158.518 382.904C159.133 383.519 159.479 384.353 159.48 385.223V429.508C159.479 430.378 159.133 431.212 158.518 431.827C157.903 432.442 157.07 432.788 156.2 432.789Z" fill="#1D84F4"/>
<path d="M214.785 432.79H182.659C181.789 432.789 180.955 432.443 180.34 431.828C179.725 431.213 179.379 430.379 179.378 429.509V343.215C179.379 342.345 179.725 341.511 180.34 340.896C180.955 340.281 181.789 339.935 182.659 339.934H214.784C215.654 339.935 216.488 340.281 217.103 340.896C217.718 341.511 218.064 342.345 218.065 343.215V429.504C218.064 430.374 217.718 431.208 217.103 431.823C216.488 432.438 215.654 432.784 214.784 432.785L214.785 432.79Z" fill="#1D84F4"/>
<path d="M273.37 432.789H241.244C240.374 432.788 239.54 432.442 238.925 431.827C238.31 431.212 237.964 430.378 237.963 429.508V385.223C237.964 384.353 238.31 383.519 238.925 382.904C239.54 382.289 240.374 381.943 241.244 381.942H273.369C274.239 381.943 275.073 382.289 275.688 382.904C276.303 383.519 276.649 384.353 276.65 385.223V429.508C276.649 430.378 276.303 431.212 275.688 431.827C275.073 432.442 274.24 432.788 273.37 432.789Z" fill="#1D84F4"/>
<path d="M331.955 432.789H299.829C298.979 432.807 298.156 432.488 297.541 431.901C296.926 431.314 296.569 430.507 296.548 429.657V326.489C296.569 325.639 296.926 324.832 297.541 324.245C298.156 323.658 298.979 323.338 299.829 323.357H331.954C332.804 323.338 333.626 323.658 334.241 324.245C334.856 324.832 335.214 325.639 335.235 326.489V429.657C335.214 430.506 334.857 431.313 334.242 431.9C333.627 432.487 332.805 432.807 331.955 432.789Z" fill="#1D84F4"/>
<path d="M390.539 432.79H358.413C357.543 432.789 356.709 432.443 356.094 431.828C355.479 431.212 355.133 430.379 355.132 429.509V296.794C355.133 295.924 355.479 295.09 356.094 294.475C356.709 293.86 357.543 293.514 358.413 293.513H390.538C391.408 293.514 392.242 293.86 392.857 294.475C393.472 295.09 393.818 295.924 393.819 296.794V429.509C393.818 430.379 393.472 431.212 392.857 431.828C392.242 432.443 391.408 432.789 390.538 432.79H390.539Z" fill="#1D84F4"/>
<path d="M140.137 368.678C143.8 368.678 146.769 365.709 146.769 362.046C146.769 358.383 143.8 355.414 140.137 355.414C136.474 355.414 133.505 358.383 133.505 362.046C133.505 365.709 136.474 368.678 140.137 368.678Z" fill="#3F3D56"/>
<path d="M198.723 325.568C202.386 325.568 205.355 322.598 205.355 318.936C205.355 315.273 202.386 312.304 198.723 312.304C195.06 312.304 192.091 315.273 192.091 318.936C192.091 322.598 195.06 325.568 198.723 325.568Z" fill="#3F3D56"/>
<path d="M257.307 368.678C260.97 368.678 263.939 365.709 263.939 362.046C263.939 358.383 260.97 355.414 257.307 355.414C253.644 355.414 250.675 358.383 250.675 362.046C250.675 365.709 253.644 368.678 257.307 368.678Z" fill="#3F3D56"/>
<path d="M315.891 304.566C319.554 304.566 322.523 301.597 322.523 297.934C322.523 294.271 319.554 291.302 315.891 291.302C312.228 291.302 309.259 294.271 309.259 297.934C309.259 301.597 312.228 304.566 315.891 304.566Z" fill="#3F3D56"/>
<path d="M374.477 280.247C378.139 280.247 381.109 277.278 381.109 273.615C381.109 269.952 378.139 266.983 374.477 266.983C370.814 266.983 367.845 269.952 367.845 273.615C367.845 277.278 370.814 280.247 374.477 280.247Z" fill="#3F3D56"/>
<path d="M257.447 363.53L198.723 319.546L140.8 362.93L139.474 361.161L198.722 316.783L257.167 360.56L315.244 297.003L315.479 296.903L374.064 273.303L374.89 275.354L316.538 298.865L257.447 363.53Z" fill="#3F3D56"/>
<path d="M421.259 575.96C428.867 575.96 435.046 577.906 435.046 580.297V614.046C435.046 616.439 428.861 618.383 421.259 618.383H93.4159C85.8079 618.383 79.6289 616.437 79.6289 614.046V580.299C79.6289 577.906 85.8139 575.962 93.4159 575.962" fill="#F2F2F2"/>
<path d="M421.259 516.96C428.867 516.96 435.046 518.906 435.046 521.297V555.046C435.046 557.439 428.861 559.383 421.259 559.383H93.4159C85.8079 559.383 79.6289 557.437 79.6289 555.046V521.299C79.6289 518.906 85.8139 516.962 93.4159 516.962" fill="#F2F2F2"/>
<path d="M257.159 220.983C297.476 220.983 330.159 188.3 330.159 147.983C330.159 107.666 297.476 74.9829 257.159 74.9829C216.842 74.9829 184.159 107.666 184.159 147.983C184.159 188.3 216.842 220.983 257.159 220.983Z" fill="#F2F2F2"/>
<path d="M270.549 144.327H260.811V134.589C260.78 133.642 260.382 132.744 259.701 132.085C259.02 131.426 258.109 131.058 257.161 131.058C256.214 131.058 255.303 131.426 254.622 132.085C253.941 132.744 253.543 133.642 253.511 134.589V144.327H243.773C242.826 144.358 241.928 144.756 241.269 145.438C240.611 146.119 240.242 147.029 240.242 147.977C240.242 148.924 240.611 149.835 241.269 150.516C241.928 151.197 242.826 151.595 243.773 151.627H253.511V161.365C253.495 161.854 253.578 162.342 253.754 162.799C253.93 163.256 254.196 163.673 254.537 164.025C254.877 164.377 255.285 164.657 255.736 164.848C256.187 165.039 256.672 165.138 257.161 165.138C257.651 165.138 258.136 165.039 258.587 164.848C259.038 164.657 259.446 164.377 259.786 164.025C260.127 163.673 260.393 163.256 260.569 162.799C260.745 162.342 260.828 161.854 260.811 161.365V151.627H270.549C271.496 151.595 272.394 151.197 273.053 150.516C273.712 149.835 274.081 148.924 274.081 147.977C274.081 147.029 273.712 146.119 273.053 145.438C272.394 144.756 271.496 144.358 270.549 144.327Z" fill="#1D84F4"/>
</g>
<defs>
<clipPath id="clip0_1314_12226">
<rect width="954.39" height="711.251" fill="white"/>
</clipPath>
</defs>
</svg>
